# xmcd CD database file
#
# Track frame offsets:
#	150
#	11696
#	29048
#	51313
#	68988
#	85504
#	113949
#	129910
#	145469
#	166836
#	186728
#
# Disc length: 2806 seconds
#
# Revision: 0
# Processed by: cddbd v1.5.1PL0 Copyright (c) Steve Scherf et al.
# Submitted via: CDex 1.51
#
DISCID=9e0af40b
DTITLE=Living Stones - Kickin' Out the Blues
DYEAR=2004
DGENRE=Blues
TTITLE0=Serve it Up
TTITLE1=Outta Town
TTITLE2=Gather 'Round
TTITLE3=Driving Wheel
TTITLE4=Dirty Dog
TTITLE5=Jesus Loves Me
TTITLE6=Jump Back Boogie
TTITLE7=Jesus Reigns on High
TTITLE8=Have You Ever
TTITLE9=Rollin' It
TTITLE10=Ballad of Prescher Mike
EXTD=YEAR: 2004
EXTT0=
EXTT1=
EXTT2=
EXTT3=
EXTT4=
EXTT5=
EXTT6=
EXTT7=
EXTT8=
EXTT9=
EXTT10=
PLAYORDER=
